<svg data-v-fde0c5aa="" xmlns="http://www.w3.org/2000/svg" viewBox="0 0 300 300" class="iconLeft"><!----><defs data-v-fde0c5aa=""><!----></defs><rect data-v-fde0c5aa="" fill="transparent" x="0" y="0" width="300px" height="300px" class="logo-background-square"></rect><defs data-v-fde0c5aa=""><!----></defs><g data-v-fde0c5aa="" id="70cb9b7d-8e87-411e-90d8-2b598b5b8aef" fill="#000000" transform="matrix(1.418172493991481,0,0,1.418172493991481,77.83574409352651,135.6764582840522)"><path d="M2.73 13.75L1.06 13.75L1.06 3.95L4.52 3.95Q6.22 3.95 7.01 4.83Q7.80 5.71 7.80 6.99L7.80 6.99Q7.80 8.19 6.97 9.11Q6.15 10.02 4.52 10.02L4.52 10.02L2.73 10.02L2.73 13.75ZM2.73 5.52L2.73 8.46L4.61 8.46Q5.36 8.46 5.73 8.02Q6.10 7.59 6.10 6.99L6.10 6.99Q6.10 6.41 5.75 5.96Q5.39 5.52 4.61 5.52L4.61 5.52L2.73 5.52ZM11.41 13.75L9.80 13.75L9.80 4.38L11.41 3.64L11.41 7.29Q12.11 6.43 13.44 6.43L13.44 6.43Q14.62 6.43 15.35 7.13Q16.09 7.84 16.09 9.38L16.09 9.38L16.09 13.75L14.48 13.75L14.48 9.72Q14.48 8.79 14.06 8.37Q13.65 7.95 12.99 7.95L12.99 7.95Q12.29 7.95 11.85 8.36Q11.41 8.76 11.41 9.69L11.41 9.69L11.41 13.75ZM21.56 13.92L21.56 13.92Q19.98 13.92 19.05 12.92Q18.13 11.91 18.13 10.18L18.13 10.18Q18.13 8.46 19.05 7.44Q19.98 6.43 21.56 6.43L21.56 6.43Q23.16 6.43 24.07 7.44Q24.99 8.46 24.99 10.18Q24.99 11.90 24.07 12.91Q23.16 13.92 21.56 13.92ZM21.56 12.38L21.56 12.38Q22.43 12.38 22.90 11.79Q23.37 11.20 23.37 10.18Q23.37 9.16 22.90 8.55Q22.43 7.95 21.56 7.95L21.56 7.95Q20.71 7.95 20.23 8.55Q19.75 9.16 19.75 10.18L19.75 10.18Q19.75 11.19 20.23 11.78Q20.71 12.38 21.56 12.38ZM30.69 6.43L30.69 6.43Q31.86 6.43 32.60 7.13Q33.33 7.84 33.33 9.38L33.33 9.38L33.33 13.75L31.72 13.75L31.72 9.72Q31.72 8.79 31.32 8.37Q30.91 7.95 30.24 7.95L30.24 7.95Q28.66 7.95 28.66 9.69L28.66 9.69L28.66 13.75L27.05 13.75L27.05 6.59L28.53 6.59L28.53 7.48Q28.74 7.06 29.35 6.74Q29.96 6.43 30.69 6.43ZM42.07 9.81L42.07 9.81Q42.07 10.43 42.01 10.79L42.01 10.79L37.14 10.79Q37.30 11.58 37.77 12.03Q38.23 12.49 38.98 12.49L38.98 12.49Q39.91 12.49 40.56 11.79L40.56 11.79L41.52 12.81Q40.52 13.92 38.96 13.92L38.96 13.92Q37.38 13.92 36.46 12.89Q35.55 11.87 35.55 10.16L35.55 10.16Q35.55 8.43 36.47 7.43Q37.39 6.43 38.96 6.43L38.96 6.43Q40.33 6.43 41.20 7.29Q42.07 8.15 42.07 9.81ZM37.13 9.42L37.13 9.42L40.49 9.42Q40.42 8.64 39.99 8.24Q39.56 7.84 38.96 7.84L38.96 7.84Q38.19 7.84 37.72 8.26Q37.25 8.68 37.13 9.42ZM56.17 13.92L56.17 13.92Q54.98 13.92 54.03 13.23Q53.07 12.54 52.68 11.40L52.68 11.40L54.19 10.84Q54.52 11.52 55.08 11.94Q55.65 12.35 56.31 12.35L56.31 12.35Q56.95 12.35 57.34 12.01Q57.74 11.68 57.74 11.05L57.74 11.05Q57.74 10.51 57.20 10.10Q56.67 9.69 55.72 9.27L55.72 9.27Q55.12 9.00 54.75 8.81Q54.39 8.61 53.94 8.26Q53.48 7.91 53.26 7.43Q53.03 6.96 53.03 6.37L53.03 6.37Q53.03 5.28 53.87 4.53Q54.70 3.78 56.06 3.78L56.06 3.78Q57.13 3.78 57.94 4.37Q58.74 4.96 59.01 5.87L59.01 5.87L57.51 6.37Q57.01 5.35 55.96 5.35L55.96 5.35Q55.41 5.35 55.06 5.63Q54.71 5.91 54.71 6.40L54.71 6.40Q54.71 6.51 54.74 6.62Q54.77 6.72 54.84 6.81Q54.91 6.90 54.97 6.98Q55.03 7.06 55.17 7.15Q55.30 7.24 55.39 7.29Q55.48 7.35 55.66 7.44Q55.85 7.53 55.94 7.57Q56.04 7.62 56.27 7.72Q56.49 7.83 56.59 7.87L56.59 7.87Q57.18 8.13 57.57 8.37Q57.96 8.60 58.44 8.97Q58.91 9.35 59.16 9.87Q59.42 10.39 59.42 11.00L59.42 11.00Q59.42 12.35 58.47 13.13Q57.53 13.92 56.17 13.92ZM63.21 15.82L61.60 16.56L61.60 6.59L63.21 6.59L63.21 7.14Q63.87 6.43 64.96 6.43L64.96 6.43Q66.40 6.43 67.25 7.42Q68.10 8.41 68.10 10.18L68.10 10.18Q68.10 11.90 67.22 12.91Q66.35 13.92 64.97 13.92L64.97 13.92Q63.85 13.92 63.21 13.17L63.21 13.17L63.21 15.82ZM64.74 12.38L64.74 12.38Q65.56 12.38 66.02 11.81Q66.47 11.24 66.47 10.18L66.47 10.18Q66.47 9.16 66.02 8.55Q65.56 7.95 64.72 7.95L64.72 7.95Q63.71 7.95 63.21 8.67L63.21 8.67L63.21 11.66Q63.71 12.38 64.74 12.38ZM76.57 9.81L76.57 9.81Q76.57 10.43 76.51 10.79L76.51 10.79L71.64 10.79Q71.79 11.58 72.26 12.03Q72.73 12.49 73.47 12.49L73.47 12.49Q74.41 12.49 75.05 11.79L75.05 11.79L76.02 12.81Q75.01 13.92 73.46 13.92L73.46 13.92Q71.88 13.92 70.96 12.89Q70.04 11.87 70.04 10.16L70.04 10.16Q70.04 8.43 70.97 7.43Q71.89 6.43 73.46 6.43L73.46 6.43Q74.83 6.43 75.70 7.29Q76.57 8.15 76.57 9.81ZM71.62 9.42L71.62 9.42L74.98 9.42Q74.91 8.64 74.49 8.24Q74.06 7.84 73.46 7.84L73.46 7.84Q72.69 7.84 72.22 8.26Q71.75 8.68 71.62 9.42ZM82.07 13.92L82.07 13.92Q80.56 13.92 79.67 12.92Q78.79 11.93 78.79 10.18L78.79 10.18Q78.79 8.44 79.69 7.43Q80.60 6.43 82.10 6.43L82.10 6.43Q84.38 6.43 85.04 8.37L85.04 8.37L83.51 8.89Q83.15 7.95 82.11 7.95L82.11 7.95Q81.31 7.95 80.87 8.55Q80.43 9.16 80.43 10.18Q80.43 11.20 80.87 11.79Q81.31 12.38 82.08 12.38L82.08 12.38Q83.20 12.38 83.55 11.33L83.55 11.33L85.08 11.80Q84.43 13.92 82.07 13.92ZM90.59 13.92L90.59 13.92Q89.68 13.92 88.91 13.57Q88.14 13.23 87.68 12.64L87.68 12.64L88.73 11.69Q89.61 12.54 90.68 12.54L90.68 12.54Q91.20 12.54 91.53 12.36Q91.87 12.18 91.87 11.82L91.87 11.82Q91.87 11.61 91.66 11.42Q91.46 11.23 91.20 11.10Q90.93 10.98 90.41 10.77L90.41 10.77Q90.36 10.74 90.32 10.72Q90.29 10.71 90.23 10.69Q90.17 10.67 90.13 10.65L90.13 10.65Q89.61 10.43 89.36 10.31Q89.11 10.19 88.75 9.98Q88.40 9.76 88.23 9.56Q88.07 9.37 87.95 9.07Q87.82 8.76 87.82 8.39L87.82 8.39Q87.82 7.48 88.61 6.95Q89.39 6.43 90.58 6.43L90.58 6.43Q92.25 6.43 93.25 7.56L93.25 7.56L92.18 8.44Q91.41 7.80 90.52 7.80L90.52 7.80Q89.98 7.80 89.65 7.96Q89.32 8.12 89.32 8.41L89.32 8.41Q89.32 8.55 89.43 8.69Q89.54 8.82 89.82 8.97Q90.10 9.11 90.29 9.19Q90.47 9.27 90.90 9.44L90.90 9.44Q92.19 9.95 92.61 10.28L92.61 10.28Q93.35 10.86 93.37 11.80L93.37 11.80Q93.37 12.80 92.62 13.36Q91.87 13.92 90.59 13.92ZM106.22 13.75L104.55 13.75L104.55 3.95L106.22 3.95L106.22 7.91L109.38 7.91L109.38 3.95L111.05 3.95L111.05 13.75L109.38 13.75L109.38 9.48L106.22 9.48L106.22 13.75ZM115.95 13.92L115.95 13.92Q114.76 13.92 114.02 13.21Q113.29 12.50 113.29 10.95L113.29 10.95L113.29 6.59L114.90 6.59L114.90 10.60Q114.90 12.38 116.37 12.38L116.37 12.38Q117.95 12.38 117.95 10.63L117.95 10.63L117.95 6.59L119.56 6.59L119.56 13.75L117.95 13.75L117.95 13.06Q117.26 13.92 115.95 13.92ZM125.40 13.92L125.40 13.92Q124.22 13.92 123.58 13.20L123.58 13.20L123.58 13.75L121.97 13.75L121.97 4.38L123.58 3.64L123.58 7.15Q123.87 6.83 124.38 6.63Q124.89 6.43 125.43 6.43L125.43 6.43Q126.77 6.43 127.61 7.43Q128.45 8.44 128.45 10.16L128.45 10.16Q128.45 11.96 127.64 12.94Q126.83 13.92 125.40 13.92ZM125.15 12.38L125.15 12.38Q125.97 12.38 126.40 11.80Q126.83 11.21 126.83 10.16L126.83 10.16Q126.83 9.09 126.40 8.52Q125.97 7.95 125.15 7.95L125.15 7.95Q124.61 7.95 124.20 8.17Q123.79 8.39 123.58 8.67L123.58 8.67L123.58 11.68Q124.10 12.38 125.15 12.38Z"></path></g><defs data-v-fde0c5aa=""><linearGradient data-v-fde0c5aa="" gradientTransform="rotate(25)" id="4805582e-3400-4f97-b0d7-31949c0ec2fe" x1="0%" y1="0%" x2="100%" y2="0%"><stop data-v-fde0c5aa="" offset="0%" stop-color="#1E0B36" stop-opacity="1"></stop><stop data-v-fde0c5aa="" offset="100%" stop-color="#CA3782" stop-opacity="1"></stop></linearGradient></defs><g data-v-fde0c5aa="" id="fc3d809f-c0d4-43ab-b914-9359ef33d7fe" stroke="none" fill="url(#4805582e-3400-4f97-b0d7-31949c0ec2fe)" transform="matrix(0.05725871055654134,0,0,0.05725871055654134,38.51127352552992,135.34177009752543)"><path d="M226 66h40c5.522 0 10-4.477 10-10s-4.478-10-10-10h-40c-5.523 0-10 4.477-10 10s4.477 10 10 10zM276 446h-40c-5.523 0-10 4.478-10 10s4.477 10 10 10h40c5.522 0 10-4.478 10-10s-4.478-10-10-10zM56 316c-16.542 0-30 13.458-30 30s13.458 30 30 30 30-13.458 30-30-13.458-30-30-30zm0 40c-5.514 0-10-4.486-10-10s4.486-10 10-10 10 4.486 10 10-4.486 10-10 10zM451 136c-19.299 0-35 15.701-35 35s15.701 35 35 35 35-15.701 35-35-15.701-35-35-35zm0 50c-8.271 0-15-6.729-15-15s6.729-15 15-15 15 6.729 15 15-6.729 15-15 15z"></path><circle cx="46" cy="106" r="10"></circle><circle cx="76" cy="256" r="10"></circle><circle cx="446" cy="56" r="10"></circle><circle cx="286" cy="136" r="10"></circle><circle cx="296" cy="56" r="10"></circle><circle cx="186" cy="126" r="10"></circle><circle cx="436" cy="266" r="10"></circle><circle cx="426" cy="436" r="10"></circle><circle cx="76" cy="426" r="10"></circle><path d="M396 66.333C396 38.579 373.421 16 345.667 16H166c-27.754 0-50.333 22.579-50.333 50.333v379.334C115.667 473.421 138.246 496 166 496h179.667C373.421 496 396 473.42 396 445.684c.456-216.468.373-165.633 0-379.351zM135.667 166H206c5.523 0 10-4.477 10-10s-4.477-10-10-10h-70.333v-10H156c5.523 0 10-4.477 10-10s-4.477-10-10-10h-20.333V96H376.02l.313 161.283-.28 158.717H135.667V166zM166 36h179.667C362.393 36 376 49.607 376 66.333V76H135.667v-9.667C135.667 49.607 149.274 36 166 36zm179.667 440H166c-16.726 0-30.333-13.607-30.333-30.333V436h240.351l-.018 9.666C376 462.393 362.393 476 345.667 476z"></path><path d="M346 106c-5.522 0-10 4.477-10 10v20c0 5.523 4.478 10 10 10s10-4.477 10-10v-20c0-5.523-4.478-10-10-10zM316 146c5.522 0 10-4.477 10-10v-10c0-5.523-4.478-10-10-10s-10 4.477-10 10v10c0 5.523 4.478 10 10 10zM256 266c-16.542 0-30 13.458-30 30v70c0 16.542 13.458 30 30 30s30-13.458 30-30v-70c0-16.542-13.458-30-30-30zm10 100c0 5.514-4.486 10-10 10s-10-4.486-10-10v-70c0-5.514 4.486-10 10-10s10 4.486 10 10v70zM256 196c-16.542 0-30 13.458-30 30s13.458 30 30 30 30-13.458 30-30-13.458-30-30-30zm0 40c-5.514 0-10-4.486-10-10s4.486-10 10-10 10 4.486 10 10-4.486 10-10 10zM305.497 242.36c-3.905 3.905-3.905 10.237 0 14.143 27.293 27.293 27.293 71.701 0 98.994-3.905 3.905-3.905 10.237 0 14.143 3.907 3.905 10.236 3.904 14.143 0 35.091-35.091 35.091-92.188 0-127.279-3.907-3.905-10.237-3.905-14.143-.001zM206.503 242.36c-3.905-3.904-10.237-3.904-14.143 0-35.091 35.091-35.091 92.188 0 127.279 3.906 3.905 10.237 3.904 14.143 0 3.905-3.905 3.905-10.237 0-14.143-27.293-27.293-27.293-71.701 0-98.994 3.905-3.904 3.905-10.236 0-14.142z"></path></g><!----></svg>